<?xml version="1.0" encoding="utf-8"?>
<!-- Generator: Adobe Illustrator 17.0.2, SVG Export Plug-In . SVG Version: 6.00 Build 0)  -->
<!DOCTYPE svg PUBLIC "-//W3C//DTD SVG 1.1//EN" "http://www.w3.org/Graphics/SVG/1.1/DTD/svg11.dtd">
<svg version="1.1" id="Layer_1" opacity="0.4" xmlns="http://www.w3.org/2000/svg" xmlns:xlink="http://www.w3.org/1999/xlink"
	 x="0px" y="0px" width="20px" height="20px" viewBox="0 0 20 20" enable-background="new 0 0 20 20" xml:space="preserve">
<path display="none" d="M19.001,4.416c-0.667,0.292-1.375,0.5-2.125,0.583c0.771-0.458,1.354-1.188,1.625-2.042
	c-0.708,0.417-1.5,0.729-2.334,0.896c-0.688-0.708-1.646-1.167-2.709-1.167c-2.042,0-3.688,1.646-3.688,3.688
	c0,0.292,0.021,0.583,0.083,0.854C6.791,7.062,4.083,5.666,2.249,3.437c-0.313,0.542-0.5,1.104-0.5,1.792
	c0,1.271,0.646,2.396,1.646,3.063C2.791,8.271,2.228,8.104,1.728,7.833c0,0.021,0,0.021,0,0.042c0,1.792,1.271,3.292,2.959,3.625
	c-0.313,0.083-0.646,0.125-0.979,0.125c-0.229,0-0.458-0.021-0.688-0.062c0.458,1.458,1.834,2.542,3.438,2.563
	c-1.25,1-2.855,1.75-4.584,1.75c-0.292,0-0.583-0.021-0.875-0.062c1.625,1.042,3.584,1.5,5.667,1.5
	c6.792,0,10.501-5.626,10.501-10.501c0-0.167,0-0.313,0-0.479C17.876,5.812,18.501,5.166,19.001,4.416z"/>
<path d="M17.386,1H2.613C2.065,1,1,2.065,1,2.614v14.773C1,17.935,2.065,19,2.613,19l7.887,0v-7H8V9.5h2.5V8
	c0-2.325,1.566-3.911,3.64-3.911c0.994,0,1.516,0.107,1.765,0.14L16,6.5h-1.5C13.372,6.5,13,7.214,13,8v1.5h3L15.5,12H13v7l4.386,0
	C17.935,19,19,17.935,19,17.386V2.614C19,2.065,17.935,1,17.386,1z"/>
<path display="none" d="M10.417,1C5.499,1,3.041,4.521,3.041,7.459c0,1.771,0.667,3.355,2.104,3.959c0.25,0.083,0.458,0,0.521-0.271
	c0.042-0.167,0.167-0.625,0.208-0.833c0.062-0.25,0.042-0.333-0.146-0.563c-0.417-0.5-0.688-1.125-0.688-2.042
	c0-2.604,1.959-4.938,5.105-4.938c2.771,0,4.292,1.688,4.292,3.959c0,2.98-1.313,5.501-3.271,5.501c-1.083,0-1.896-0.896-1.646-2
	c0.313-1.313,0.917-2.729,0.917-3.667c0-0.854-0.458-1.542-1.396-1.542c-1.104,0-1.979,1.125-1.979,2.667
	c0,0.979,0.312,1.646,0.312,1.646S6.25,14.127,6.062,14.96C5.666,16.627,6,18.69,6.02,18.898c0.021,0.104,0.167,0.146,0.25,0.042
	c0.104-0.125,1.417-1.75,1.854-3.375c0.146-0.458,0.729-2.834,0.729-2.834c0.375,0.688,1.417,1.271,2.542,1.271
	c3.313,0,5.563-3.021,5.563-7.084C16.959,3.854,14.376,1,10.417,1z"/>
<g display="none">
	<g display="inline">
		<path fill-rule="evenodd" clip-rule="evenodd" d="M18.25,5.75H1.75c-0.749,0-1.5,0.757-1.5,1.5v7.5c0,0.743,0.751,1.5,1.5,1.5h1.5
			v-4h13.5v4h1.5c0.749,0,1.5-0.757,1.5-1.5v-7.5C19.75,6.507,19,5.75,18.25,5.75z M16.75,9.75h-1.5v-1.5h1.5V9.75z M15.25,1.25
			H4.75v3h10.5V1.25z M4.75,18.75h10.5v-5H4.75V18.75z"/>
	</g>
</g>
<g display="none">
	<g display="inline">
		<path fill-rule="evenodd" clip-rule="evenodd" d="M16,1.005H4v3.021h12V1.005z M18.5,5.005H1.521C1.042,5.005,0,6.005,0,6.526v8
			c0,0.5,1.021,1.479,1.542,1.479H3v-4h14v4.031l1.531-0.031c0.453,0,1.469-1,1.469-1.438v-8C20,6.005,18.984,5.005,18.5,5.005z
			 M17,9.005h-1v-1h1V9.005z M3.979,19.005h12.062v-5.979H3.979V19.005z"/>
	</g>
</g>
</svg>
