<?xml version="1.0" encoding="utf-8"?>
<!-- Generator: Adobe Illustrator 17.1.0, SVG Export Plug-In . SVG Version: 6.00 Build 0)  -->
<!DOCTYPE svg PUBLIC "-//W3C//DTD SVG 1.1//EN" "http://www.w3.org/Graphics/SVG/1.1/DTD/svg11.dtd">
<svg version="1.1" id="Layer_1" xmlns="http://www.w3.org/2000/svg" xmlns:xlink="http://www.w3.org/1999/xlink" x="0px" y="0px"
	 viewBox="0 0 24 24" enable-background="new 0 0 24 24" xml:space="preserve">
<path id="Error_1_" fill="#666B6D" d="M12,0C5.4,0,0,5.4,0,12s5.4,12,12,12s12-5.4,12-12S18.6,0,12,0z M12,4c1.4,0,2.7,0.4,3.9,1
	L12,8.8L8.8,12L5,15.9c-0.6-1.1-1-2.5-1-3.9C4,7.6,7.6,4,12,4z M12,20c-1.4,0-2.7-0.4-3.9-1l3.9-3.9l3.2-3.2L19,8.1
	c0.6,1.1,1,2.5,1,3.9C20,16.4,16.4,20,12,20z"/>
<path display="none" fill="#B7B7B7" d="M15,2H1C0.447,2,0,2.447,0,3v10c0,0.553,0.447,1,1,1h14c0.553,0,1-0.447,1-1V3
	C16,2.447,15.553,2,15,2z M8,8.586L3.414,4h9.172L8,8.586z M4.586,8L2,10.586V5.414L4.586,8z M6,9.414l1.647,1.646
	c0.195,0.195,0.512,0.195,0.707,0L10,9.414L12.586,12H3.414L6,9.414z M11.414,8L14,5.414v5.172L11.414,8z"/>
</svg>
